<svg width="248" height="382" viewBox="0 0 248 382" fill="none" xmlns="http://www.w3.org/2000/svg">
<g clip-path="url(#clip0_171_1884)">
<path d="M127 0V82H105V257C105 262.523 100.523 267 95 267H10C4.47715 267 0 262.523 0 257V10C0 4.47715 4.47715 0 10 0H127Z" fill="#F3F3F3"/>
<path d="M75 277C91.5685 277 105 290.431 105 307V352C105 368.569 91.5685 382 75 382H30C13.4315 382 7.24837e-07 368.569 0 352V307C0 290.431 13.4315 277 30 277H75ZM124 0C140.284 4.765e-05 156.409 3.20698 171.453 9.43848C186.497 15.67 200.167 24.8041 211.682 36.3184C223.196 47.8327 232.33 61.5027 238.562 76.5469C244.793 91.5912 248 107.716 248 124C248 140.284 244.793 156.409 238.562 171.453C232.33 186.497 223.196 200.167 211.682 211.682C200.167 223.196 186.497 232.33 171.453 238.562C156.409 244.793 140.284 248 124.001 248L123.998 247.997C121.503 247.997 119.032 248.489 116.728 249.443C114.422 250.398 112.327 251.798 110.562 253.562C108.798 255.327 107.398 257.422 106.443 259.728C104.866 263.535 101.656 267 97.5342 267H10C4.47717 267 -0.0424805 262.516 0.402344 257.011C1.44176 244.149 4.48474 231.506 9.43848 219.547C15.67 204.503 24.8041 190.833 36.3184 179.318C47.8327 167.804 61.5028 158.67 76.5469 152.438C91.5906 146.207 107.715 143 123.998 143L124.001 143.003C126.496 143.003 128.967 142.511 131.272 141.557C133.578 140.602 135.673 139.202 137.438 137.438C139.202 135.673 140.602 133.578 141.557 131.272C142.512 128.967 143.003 126.495 143.003 124C143.003 121.505 142.512 119.033 141.557 116.728C140.602 114.422 139.202 112.327 137.438 110.562C135.673 108.798 133.578 107.398 131.272 106.443C128.967 105.488 126.495 104.997 124 104.997C121.505 104.997 119.034 105.489 116.729 106.443C114.423 107.398 112.328 108.798 110.563 110.562C108.799 112.327 107.399 114.422 106.444 116.728C104.867 120.535 101.656 124 97.5342 124H10C4.47717 124 -0.042583 119.516 0.402344 114.011C1.442 101.149 4.48569 88.5063 9.43945 76.5469C15.671 61.5027 24.805 47.8327 36.3193 36.3184C47.8337 24.8041 61.5037 15.67 76.5479 9.43848C91.5919 3.20712 107.716 4.60837e-05 124 0Z" fill="url(#paint0_linear_171_1884)"/>
</g>
<defs>
<linearGradient id="paint0_linear_171_1884" x1="124" y1="0" x2="124" y2="381" gradientUnits="userSpaceOnUse">
<stop stop-color="#8300FF"/>
<stop offset="1" stop-color="#2529FF"/>
</linearGradient>
<clipPath id="clip0_171_1884">
<rect width="248" height="382" fill="white"/>
</clipPath>
</defs>
</svg>
